<?xml version="1.0" encoding="utf-8"?>
<!-- Generator: Adobe Illustrator 24.0.1, SVG Export Plug-In . SVG Version: 6.00 Build 0)  -->
<svg version="1.1" id="Camada_1" xmlns="http://www.w3.org/2000/svg" xmlns:xlink="http://www.w3.org/1999/xlink" x="0px" y="0px"
	 viewBox="0 0 800 600" style="enable-background:new 0 0 800 600;" xml:space="preserve">
<style type="text/css">
	.st0{fill:#0061FF;}
	.st1{fill:#1F95FF;}
	.st2{fill:#4EB9FD;}
	.st3{fill:#60EFFF;}
</style>
<g>
	<path class="st0" d="M417.48,108.03c-14.9-8.6-33.96-3.5-42.56,11.4L214.81,396.75c-8.6,14.9-3.5,33.96,11.41,42.56
		c14.9,8.6,33.96,3.5,42.56-11.4l160.11-277.32C437.49,135.69,432.38,116.63,417.48,108.03z"/>
	<path class="st1" d="M470.17,198.87c-14.83-8.56-33.8-3.48-42.37,11.35L319.76,397.36c-8.56,14.83-3.48,33.8,11.35,42.37
		c14.83,8.57,33.8,3.48,42.37-11.35l108.04-187.14C490.09,226.4,485,207.43,470.17,198.87z"/>
	<path class="st2" d="M523.76,291.53c-15.76-9.1-35.91-3.7-45.01,12.06l-52.63,91.17c-9.1,15.76-3.7,35.91,12.06,45.01
		c14.34,8.28,32.67,3.37,40.95-10.97l55.61-96.31C543.01,318.14,538.09,299.81,523.76,291.53z"/>
	<path class="st3" d="M557.9,381.21c-17.38,0-31.47,14.09-31.47,31.47c0,17.38,14.09,31.47,31.47,31.47
		c17.38,0,31.47-14.09,31.47-31.47C589.37,395.3,575.28,381.21,557.9,381.21z"/>
</g>
</svg>
