<?xml version="1.0" encoding="UTF-8" standalone="no"?>
<!-- Created with Inkscape (http://www.inkscape.org/) -->

<svg
   xmlns:dc="http://purl.org/dc/elements/1.1/"
   xmlns:cc="http://creativecommons.org/ns#"
   xmlns:rdf="http://www.w3.org/1999/02/22-rdf-syntax-ns#"
   xmlns:svg="http://www.w3.org/2000/svg"
   xmlns="http://www.w3.org/2000/svg"
   xmlns:sodipodi="http://sodipodi.sourceforge.net/DTD/sodipodi-0.dtd"
   xmlns:inkscape="http://www.inkscape.org/namespaces/inkscape"
   width="100mm"
   height="14.608mm"
   viewBox="0 0 100 14.608"
   version="1.1"
   id="svg8"
   inkscape:version="0.92.5 (2060ec1f9f, 2020-04-08)"
   sodipodi:docname="peerlab-logo-fit.svg">
  <defs
     id="defs2">
    <clipPath
       id="clipPath26"
       clipPathUnits="userSpaceOnUse">
      <path
         inkscape:connector-curvature="0"
         id="path24"
         d="M 0,600 H 800 V 0 H 0 Z" />
    </clipPath>
  </defs>
  <sodipodi:namedview
     id="base"
     pagecolor="#ffffff"
     bordercolor="#666666"
     borderopacity="1.0"
     inkscape:pageopacity="0.0"
     inkscape:pageshadow="2"
     inkscape:zoom="2.8"
     inkscape:cx="158.02597"
     inkscape:cy="45.055502"
     inkscape:document-units="mm"
     inkscape:current-layer="layer1"
     showgrid="false"
     inkscape:window-width="1920"
     inkscape:window-height="1043"
     inkscape:window-x="1920"
     inkscape:window-y="0"
     inkscape:window-maximized="1" />
  <metadata
     id="metadata5">
    <rdf:RDF>
      <cc:Work
         rdf:about="">
        <dc:format>image/svg+xml</dc:format>
        <dc:type
           rdf:resource="http://purl.org/dc/dcmitype/StillImage" />
        <dc:title></dc:title>
      </cc:Work>
    </rdf:RDF>
  </metadata>
  <g
     inkscape:label="Layer 1"
     inkscape:groupmode="layer"
     id="layer1"
     transform="translate(0,-282.392)">
    <g
       id="g104"
       transform="matrix(0.08655095,0,0,0.08655095,-9.5639803,267.33207)">
	<g
   id="g86">
		<path
   id="path78"
   d="m 211.88,176.24 c -7.3,-4.22 -16.64,-1.71 -20.86,5.59 l -78.47,135.91 c -4.22,7.3 -1.71,16.64 5.59,20.86 7.3,4.22 16.64,1.71 20.86,-5.59 L 217.47,197.1 c 4.21,-7.3 1.71,-16.64 -5.59,-20.86 z"
   class="st0"
   inkscape:connector-curvature="0"
   style="fill:#0061ff" />

		<path
   id="path80"
   d="m 237.7,220.76 c -7.27,-4.2 -16.57,-1.71 -20.76,5.56 l -52.95,91.71 c -4.2,7.27 -1.71,16.57 5.56,20.76 7.27,4.2 16.57,1.71 20.76,-5.56 l 52.95,-91.71 c 4.2,-7.26 1.71,-16.56 -5.56,-20.76 z"
   class="st1"
   inkscape:connector-curvature="0"
   style="fill:#1f95ff" />

		<path
   id="path82"
   d="m 263.96,266.18 c -7.72,-4.46 -17.6,-1.81 -22.06,5.91 l -25.8,44.68 c -4.46,7.72 -1.81,17.6 5.91,22.06 7.03,4.06 16.01,1.65 20.07,-5.38 l 27.25,-47.2 c 4.07,-7.03 1.66,-16.01 -5.37,-20.07 z"
   class="st2"
   inkscape:connector-curvature="0"
   style="fill:#4eb9fd" />

		<path
   id="path84"
   d="m 280.7,310.13 c -8.52,0 -15.42,6.91 -15.42,15.42 0,8.52 6.91,15.42 15.42,15.42 8.52,0 15.42,-6.91 15.42,-15.42 0,-8.52 -6.91,-15.42 -15.42,-15.42 z"
   class="st3"
   inkscape:connector-curvature="0"
   style="fill:#60efff" />

	</g>

	<g
   id="g96">
		<path
   id="path88"
   d="m 431.97,178.53 c -7.96,-3.02 -18.7,-4.53 -32.22,-4.53 -8.91,0 -16.56,0.04 -22.92,0.12 -6.37,0.08 -12.25,0.28 -17.67,0.6 -5.41,0.32 -11.14,0.8 -17.19,1.43 v 164.71 h 23.87 v -64.9 c 5.19,0.62 10.87,1.09 17.07,1.41 6.28,0.32 12.85,0.48 19.69,0.48 12.57,0 22.64,-1.47 30.2,-4.42 7.56,-2.94 13.01,-8.19 16.35,-15.75 3.34,-7.56 5.01,-18.1 5.01,-31.63 0,-13.69 -1.71,-24.27 -5.13,-31.75 -3.42,-7.49 -9.1,-12.74 -17.06,-15.77 z m -4.77,67.08 c -1.91,4.62 -5.09,7.8 -9.55,9.55 -4.46,1.75 -10.5,2.71 -18.14,2.87 -9.23,0 -18.46,0 -27.69,0 -2.01,0 -3.99,0 -5.97,0 v -63.99 c 9.51,-0.15 20.72,-0.23 33.66,-0.23 7.64,0 13.68,0.92 18.14,2.75 4.46,1.83 7.64,5.05 9.55,9.67 1.91,4.62 2.87,11.22 2.87,19.81 -0.01,8.44 -0.96,14.96 -2.87,19.57 z"
   class="st4"
   inkscape:connector-curvature="0"
   style="fill:#1d1d1b" />

		<path
   id="path90"
   d="m 509.79,199.3 c 2.23,-2.39 5.73,-3.58 10.5,-3.58 h 65.65 l 0.96,-18.38 c -7.32,-0.48 -15,-0.84 -23.04,-1.07 -8.04,-0.24 -16.2,-0.36 -24.47,-0.36 -8.28,0 -16.39,0 -24.35,0 -9.87,0 -17.71,2.63 -23.51,7.88 -5.81,5.25 -8.8,12.41 -8.95,21.48 v 106.47 c 0.16,8.91 3.14,16.04 8.95,21.37 5.81,5.33 13.64,8 23.51,8 7.96,0 16.07,-0.04 24.35,-0.12 8.27,-0.08 16.43,-0.2 24.47,-0.36 8.03,-0.15 15.71,-0.48 23.04,-0.96 l -0.96,-18.14 h -65.65 c -4.77,0 -8.28,-1.23 -10.5,-3.7 -2.23,-2.47 -3.34,-6.33 -3.34,-11.58 v -42.97 h 70.18 V 244.9 h -70.18 v -34.14 c 0,-5.25 1.11,-9.07 3.34,-11.46 z"
   class="st4"
   inkscape:connector-curvature="0"
   style="fill:#1d1d1b" />

		<path
   id="path92"
   d="m 644.19,199.3 c 2.23,-2.39 5.73,-3.58 10.5,-3.58 h 65.65 l 0.96,-18.38 c -7.32,-0.48 -15,-0.84 -23.04,-1.07 -8.04,-0.24 -16.2,-0.36 -24.47,-0.36 -8.28,0 -16.39,0 -24.35,0 -9.87,0 -17.71,2.63 -23.51,7.88 -5.81,5.25 -8.8,12.41 -8.95,21.48 v 106.47 c 0.16,8.91 3.14,16.04 8.95,21.37 5.81,5.33 13.64,8 23.51,8 7.96,0 16.07,-0.04 24.35,-0.12 8.27,-0.08 16.43,-0.2 24.47,-0.36 8.03,-0.15 15.71,-0.48 23.04,-0.96 l -0.96,-18.14 h -65.65 c -4.77,0 -8.28,-1.23 -10.5,-3.7 -2.23,-2.47 -3.34,-6.33 -3.34,-11.58 v -42.97 h 70.18 V 244.9 h -70.18 v -34.14 c -0.01,-5.25 1.1,-9.07 3.34,-11.46 z"
   class="st4"
   inkscape:connector-curvature="0"
   style="fill:#1d1d1b" />

		<path
   id="path94"
   d="m 855.92,289.06 c -1.11,-4.93 -2.87,-9.03 -5.25,-12.29 -2.39,-3.26 -4.93,-5.85 -7.64,-7.76 -2.71,-1.91 -5.41,-3.18 -8.12,-3.82 V 264 c 7.48,-0.96 13.41,-3.1 17.78,-6.45 4.38,-3.34 7.6,-7.95 9.67,-13.84 2.07,-5.89 3.1,-13.21 3.1,-21.96 0,-12.41 -1.83,-22.08 -5.49,-29 -3.66,-6.92 -9.51,-11.77 -17.55,-14.56 -8.04,-2.78 -18.58,-4.18 -31.63,-4.18 -8.91,0 -16.59,0.04 -23.04,0.12 -6.45,0.08 -12.37,0.28 -17.78,0.6 -5.41,0.32 -11.14,0.8 -17.19,1.43 v 164.71 h 23.63 v -68.28 c 2.66,0.05 5.5,0.09 8.6,0.13 7.16,0.08 15.75,0.12 25.78,0.12 5.41,0 9.79,1.28 13.13,3.82 3.34,2.55 5.97,6.84 7.88,12.89 l 14.32,51.32 h 25.3 z m -27.21,-38.79 c -4.46,1.67 -10.59,2.59 -18.38,2.75 h -33.9 v -58.97 c 9.56,-0.15 20.85,-0.23 33.9,-0.23 7.8,0 13.92,0.84 18.38,2.51 4.45,1.67 7.67,4.62 9.67,8.83 1.99,4.22 2.98,10.23 2.98,18.02 0,7.8 -1,13.85 -2.98,18.14 -1.99,4.29 -5.22,7.28 -9.67,8.95 z"
   class="st4"
   inkscape:connector-curvature="0"
   style="fill:#1d1d1b" />

	</g>

	<path
   id="path98"
   d="m 932.79,332.51 c -5.57,0 -10.07,-1.71 -13.49,-5.13 -3.42,-3.42 -5.13,-7.91 -5.13,-13.49 V 176.15 h -9.79 v 138.7 c 0,7.48 2.39,13.69 7.16,18.62 4.77,4.94 11.3,7.4 19.58,7.4 10.82,0 21.72,-0.04 32.7,-0.12 10.98,-0.08 21.88,-0.44 32.7,-1.07 l -0.24,-7.16 h -63.49 z"
   class="st5"
   inkscape:connector-curvature="0"
   style="fill:#0083e5" />

	<path
   id="path100"
   d="m 1258.73,268.77 c -4.77,-7.48 -13.29,-11.77 -25.54,-12.89 v -0.95 c 9.87,-0.96 16.99,-4.54 21.36,-10.74 4.38,-6.21 6.57,-15.2 6.57,-26.97 0,-11.3 -1.75,-20.05 -5.25,-26.26 -3.5,-6.21 -9.15,-10.54 -16.95,-13.01 -7.8,-2.46 -18.22,-3.7 -31.27,-3.7 -7.48,0 -13.89,0.04 -19.22,0.12 -5.33,0.08 -10.23,0.24 -14.68,0.48 -4.45,0.24 -9.23,0.68 -14.32,1.31 v 164.71 c 5.89,0.48 11.38,0.87 16.47,1.19 5.09,0.32 10.7,0.51 16.83,0.6 6.12,0.08 13.49,0.12 22.08,0.12 12.42,0 22.36,-1.23 29.84,-3.7 7.48,-2.46 12.89,-6.8 16.23,-13.01 3.34,-6.21 5.01,-14.96 5.01,-26.26 0,-13.22 -2.39,-23.56 -7.16,-31.04 z m -89.52,-85.5 c 1,-0.03 2.07,-0.05 3.22,-0.08 4.22,-0.08 9.27,-0.15 15.16,-0.24 5.89,-0.08 12.49,-0.12 19.81,-0.12 10.66,0 19.22,0.96 25.66,2.86 6.45,1.91 11.06,5.37 13.85,10.38 2.78,5.01 4.18,12.29 4.18,21.84 0,8.91 -1.23,15.8 -3.7,20.65 -2.47,4.86 -6.6,8.2 -12.41,10.02 -5.81,1.83 -13.57,2.83 -23.28,2.99 h -42.49 z m 82.6,137.54 c -2.71,5.1 -7.08,8.59 -13.13,10.5 -6.05,1.91 -14.32,2.86 -24.83,2.86 -12.25,0 -23,-0.08 -32.22,-0.24 -5.02,-0.09 -9.14,-0.17 -12.41,-0.26 v -74.22 h 42.49 c 10.82,0.16 19.46,1.35 25.9,3.58 6.45,2.23 11.1,6.17 13.96,11.82 2.87,5.65 4.3,13.65 4.3,23.99 -0.01,9.56 -1.36,16.88 -4.06,21.97 z"
   class="st5"
   inkscape:connector-curvature="0"
   style="fill:#0083e5" />

	<path
   id="path102"
   d="m 1087.6,175.83 c -0.72,-0.48 -1.65,-0.72 -2.78,-0.72 h -13.52 c -0.97,0 -1.85,0.24 -2.66,0.72 -0.81,0.48 -1.37,1.29 -1.69,2.41 l -58.18,163.43 h 10.38 l 20.53,-58.66 h 76.74 l 20.53,58.66 h 10.38 l -58.18,-163.43 c -0.3,-1.12 -0.82,-1.92 -1.55,-2.41 z m -44.86,98.49 27.12,-77.49 c 0.8,-2.25 1.61,-4.5 2.41,-6.76 0.8,-2.25 1.61,-4.51 2.41,-6.76 h 6.76 c 0.8,2.25 1.61,4.51 2.41,6.76 0.8,2.25 1.61,4.51 2.41,6.76 l 27.12,77.49 z"
   class="st5"
   inkscape:connector-curvature="0"
   style="fill:#0083e5" />

</g>
  </g>
  <style
     id="style76"
     type="text/css">
	.st0{fill:#0061FF;}
	.st1{fill:#1F95FF;}
	.st2{fill:#4EB9FD;}
	.st3{fill:#60EFFF;}
	.st4{fill:#1D1D1B;}
	.st5{fill:#0083E5;}
</style>
</svg>
